# This file uses centimeters as units for non-parametric coordinates.

mtllib Jamhamship.mtl
g default
v -1.992930 0.000000 3.706747
v 1.992930 0.000000 3.706747
v -0.195348 0.000000 6.571250
v 0.195348 0.000000 6.571250
v 0.000000 0.000000 6.571250
v 0.000000 0.000000 3.706747
v 0.000000 0.000000 1.097614
v 0.000000 0.000000 -1.992930
v -1.557897 0.033719 -2.976269
v 0.000000 -0.033719 -3.570138
v 1.557897 0.033719 -2.976269
v 0.000000 0.612000 6.571250
v -1.992930 0.612000 3.706747
v -0.195348 0.612000 6.571250
v 1.992930 0.612000 3.706747
v 0.195348 0.612000 6.571250
v 0.000000 0.578394 -3.568106
v -1.545936 0.645599 -2.974237
v 1.545936 0.645599 -2.974237
v -1.728932 1.042002 1.097786
v -0.000000 1.042100 -1.991189
v -1.720812 1.039363 -1.934660
v 0.000000 0.828248 6.307250
v 0.000000 1.042000 3.706747
v -1.728930 1.042000 3.630772
v 1.728930 1.042000 3.630772
v 1.728932 1.042002 1.097786
v 1.720812 1.039363 -1.934660
v -0.000000 1.005403 -3.283916
v -1.341493 1.070983 -2.765277
v 1.341493 1.070983 -2.765277
v -1.258886 1.569511 1.065704
v 0.000000 1.903767 1.065556
v -0.000000 1.903867 -1.610359
v -1.250766 1.566871 -1.561387
v -1.258883 1.569509 3.260098
v 0.000000 1.903767 3.325917
v 1.258883 1.569509 3.260098
v 1.258886 1.569511 1.065704
v 1.250766 1.566871 -1.561387
v -1.992930 0.076141 1.178374
v -1.912170 0.000000 1.021473
v -2.925042 0.000000 0.945332
v -2.901963 0.152282 1.097614
v -1.957743 0.078872 -2.071260
v -1.907142 0.000000 -1.916747
v -4.564057 0.000000 -1.840648
v -4.620975 0.152282 -1.992930
v 1.992930 0.076141 1.178374
v 1.912170 0.000000 1.021473
v 2.925042 0.000000 0.945332
v 2.901963 0.152282 1.097614
v 1.957743 0.078872 -2.071260
v 1.907142 0.000000 -1.916747
v 4.564057 0.000000 -1.840648
v 4.620975 0.152282 -1.992930
v -6.192574 0.000000 2.997954
v -6.240832 0.152282 3.224477
v -6.359341 0.000000 2.698131
v -6.523572 0.152282 2.716152
v 6.192574 0.000000 2.997954
v 6.240832 0.152282 3.224477
v 6.359341 0.000000 2.698131
v 6.523572 0.152282 2.716152
v 5.606014 0.000000 2.559012
v 5.531651 0.152985 2.692708
v 6.017712 0.000000 1.549162
v 6.173492 0.152282 1.538764
v -5.606014 0.000000 2.559012
v -5.531651 0.152985 2.692708
v -6.017712 0.000000 1.549162
v -6.173492 0.152282 1.538764
v 4.187935 0.000000 1.495689
v 4.113571 0.152985 1.629384
v -4.187935 0.000000 1.495689
v -4.113571 0.152985 1.629384
v 6.413593 0.000000 -0.972729
v 6.591644 0.152282 -1.125006
v 5.389435 0.000000 -0.563883
v 5.473478 0.152282 -0.815541
v 5.941854 0.000000 -0.972745
v 5.891631 0.152282 -1.125028
v -5.389435 0.000000 -0.563883
v -5.473478 0.152282 -0.815541
v -5.941854 0.000000 -0.972745
v -5.891631 0.152282 -1.125028
v -6.413593 0.000000 -0.972729
v -6.591644 0.152282 -1.125006
v -3.829229 0.000000 1.225833
v -3.758948 0.152282 1.363472
v -5.165086 0.000000 -1.318412
v -5.298421 0.152282 -1.404294
v 3.829229 0.000000 1.225833
v 3.758948 0.152282 1.363472
v 5.165086 0.000000 -1.318412
v 5.298421 0.152282 -1.404294
v -1.953062 0.669357 -1.908425
v -1.961433 0.538038 -2.054415
v -4.564075 0.612000 -1.840633
v -4.620975 0.459718 -1.992930
v -1.957303 0.669871 1.021496
v -1.992930 0.535859 1.165520
v -2.901963 0.459718 1.097614
v -2.925042 0.612001 0.945332
v 1.957303 0.669871 1.021496
v 1.992930 0.535859 1.165520
v 2.925042 0.612001 0.945332
v 2.901963 0.459718 1.097614
v 1.953062 0.669357 -1.908425
v 1.961433 0.538038 -2.054415
v 4.620975 0.459718 -1.992930
v 4.564075 0.612000 -1.840633
v -6.173492 0.459718 1.538764
v -6.017712 0.612000 1.549162
v -6.359341 0.612000 2.698131
v -6.523572 0.459718 2.716152
v -6.192574 0.612000 2.997954
v -6.240832 0.459718 3.224477
v -5.606014 0.612000 2.559012
v -5.531651 0.459015 2.692708
v 3.758948 0.459718 1.363472
v 3.829229 0.612000 1.225833
v 4.187935 0.612000 1.495689
v 4.113571 0.459016 1.629384
v 5.165086 0.612000 -1.318412
v 5.298421 0.459718 -1.404294
v 5.473478 0.459718 -0.815541
v 5.389435 0.612000 -0.563883
v 5.531651 0.459015 2.692708
v 5.606014 0.612000 2.559012
v 6.192574 0.612000 2.997954
v 6.240832 0.459718 3.224477
v 6.359341 0.612000 2.698131
v 6.523572 0.459718 2.716152
v 6.017712 0.612000 1.549162
v 6.173492 0.459718 1.538764
v -5.298421 0.459718 -1.404294
v -5.165086 0.612000 -1.318412
v -5.389435 0.612000 -0.563883
v -5.473478 0.459718 -0.815541
v -3.829229 0.612000 1.225833
v -3.758948 0.459718 1.363472
v -4.113571 0.459016 1.629384
v -4.187935 0.612000 1.495689
v 6.413593 0.612000 -0.972729
v 6.591644 0.459718 -1.125006
v 5.941854 0.612000 -0.972745
v 5.891631 0.459718 -1.125028
v -5.941854 0.612000 -0.972745
v -5.891631 0.459718 -1.125028
v -6.413593 0.612000 -0.972729
v -6.591644 0.459718 -1.125006
v 0.000000 0.000000 1.358527
v 0.000000 -0.011802 -2.544953
vt 0.000000 0.000000
vt 1.000000 0.000000
vt 1.000000 1.000000
vt 0.000000 0.000000
vt 0.000000 0.000000
vt 0.500000 0.000000
vt 1.000000 0.000000
vt 0.500000 0.500000
vt 0.500000 1.000000
vt 0.500000 1.000000
vt 0.000000 0.000000
vt 1.000000 0.000000
vt 1.000000 0.000000
vt 0.000000 0.000000
vt 0.000000 0.000000
vt 1.000000 0.000000
vt 0.000000 0.000000
vt 0.000000 0.000000
vt 0.000000 0.000000
vt 1.000000 0.000000
vt 0.000000 1.000000
vt 0.500000 1.000000
vt 1.000000 0.000000
vt 0.000000 0.000000
vt 1.000000 0.000000
vt 0.000000 1.000000
vt 0.000000 1.000000
vt 0.500000 1.000000
vt 0.500000 1.000000
vt 0.500000 1.000000
vt 0.000000 1.000000
vt 0.000000 0.500000
vt 0.000000 0.000000
vt 0.500000 0.000000
vt 1.000000 0.000000
vt 1.000000 0.500000
vt 1.000000 1.000000
vt 0.000000 0.484524
vt 0.000000 1.000000
vt 0.500000 1.000000
vt 0.020262 0.512318
vt 0.021523 0.987675
vt 0.500000 0.500000
vt 0.500000 0.000000
vt 0.978477 0.987675
vt 1.000000 1.000000
vt 0.500000 1.000000
vt 0.960128 1.000000
vt 1.000000 1.000000
vt 0.000000 1.000000
vt 0.468391 1.000000
vt 0.500000 1.000000
vt 0.000000 1.000000
vt 0.460128 1.000000
vt 0.000000 0.987686
vt 0.000000 0.512321
vt 0.000000 1.000000
vt 0.000000 -0.000000
vt 0.000000 0.500000
vt 0.000000 0.000000
vt 0.000000 0.486987
vt 1.000000 0.486987
vt 1.000000 0.484524
vt 1.000000 0.512321
vt 1.000000 0.987686
vt 1.000000 0.500000
vt 1.000000 1.000000
vt 0.500000 1.000000
vt 0.968391 1.000000
vt 0.000000 1.000000
vt 0.000000 0.999982
vt 0.000000 1.000000
vt 1.000000 1.000000
vt 1.000000 0.999982
vt 0.000000 0.500000
vt 1.000000 0.500000
vt 1.000000 0.500000
vt 1.000000 0.500000
vt 1.000000 0.500000
vt 0.000000 0.500000
vt 0.000000 1.000000
vt 0.000000 1.000000
vt 1.000000 1.000000
vt 1.000000 0.999218
vt 1.000000 0.500000
vt 0.000000 0.500000
vt 0.000000 0.999218
vt 0.000000 0.582328
vt 1.000000 1.000000
vt 1.000000 0.682994
vt 0.000000 0.500000
vt 0.000000 0.500000
vt 0.000000 0.500000
vt 1.000000 0.506833
vt 1.000000 0.500000
vt 1.000000 0.500000
vt 1.000000 0.500000
vt 0.000000 0.501111
vt 1.000000 0.500000
vt 1.000000 0.500000
vt 0.000000 0.500000
vt 0.000000 0.500000
vt 1.000000 0.500000
vt 1.000000 0.500000
vt 0.000000 0.500000
vt 0.000000 0.500000
vt 0.000000 0.682994
vt 0.000000 0.511134
vt 1.000000 0.500501
vt 1.000000 0.579906
vt 0.000000 1.000000
vt 0.000000 0.683008
vt 1.000000 1.000000
vt 1.000000 0.579910
vt 0.000000 0.500000
vt 1.000000 0.500501
vt 1.000000 0.500000
vt 0.000000 0.500000
vt 0.000000 0.511134
vt 1.000000 0.500000
vt 1.000000 0.500000
vt 0.000000 0.500000
vt 0.000000 0.500000
vt 1.000000 0.500000
vt 0.000000 0.500000
vt 0.000000 0.500000
vt 0.000000 0.501112
vt 0.000000 0.582330
vt 1.000000 0.683008
vt 1.000000 0.506833
vt 0.000000 1.000000
vt 0.000000 0.580248
vt 0.000000 1.000000
vt 0.000000 0.677982
vt 1.000000 1.000000
vt 1.000000 0.677981
vt 1.000000 0.580248
vt 0.000000 0.500000
vt 0.000000 0.500000
vt 0.000000 0.500000
vt 0.000000 0.500000
vt 0.000000 0.500000
vt 0.000000 0.500000
vt 1.000000 0.500000
vt 1.000000 0.500000
vt 1.000000 0.500000
vt 1.000000 0.500000
vt 1.000000 0.500000
vt 1.000000 0.500000
vt 1.000000 0.500000
vt 1.000000 0.500000
vt 1.000000 0.500000
vt 1.000000 0.500000
vt 0.000000 0.500000
vt 0.000000 0.500000
vt 0.000000 0.500000
vt 0.000000 0.500000
vt 1.000000 0.500000
vt 1.000000 0.500000
vt 0.000000 0.500000
vt 0.000000 0.500000
vt 1.000000 0.500000
vt 1.000000 0.500000
vt 1.000000 0.500000
vt 1.000000 0.500000
vt 1.000000 0.500000
vt 1.000000 0.500000
vt 0.000000 0.500000
vt 0.000000 0.500000
vt 0.000000 0.500000
vt 0.000000 0.500000
vt 0.000000 0.500000
vt 0.000000 0.500000
vt 0.000000 0.677982
vt 0.000000 0.500000
vt 0.000000 0.500000
vt 0.000000 0.580248
vt 1.000000 0.500000
vt 1.000000 0.677982
vt 1.000000 0.580248
vt 1.000000 0.500000
vt 0.500000 1.000000
vt 0.979738 0.512318
vt 0.500000 0.450000
vt 0.825000 1.000000
vt 0.325000 1.000000
vn -0.256626 0.966510 -0.000960
vn 0.000000 1.000000 -0.000694
vn -0.259154 0.965836 -0.000474
vn 0.000000 1.000000 0.000037
vn 0.000000 0.996639 0.081920
vn 0.000000 0.996639 0.081920
vn -0.003600 0.996633 0.081920
vn 0.000000 1.000000 0.000000
vn -0.256627 0.966511 0.000000
vn 0.003600 0.996633 0.081920
vn 0.256627 0.966511 0.000000
vn 0.256626 0.966510 -0.000960
vn 0.259154 0.965836 -0.000474
vn -0.000345 0.999282 0.037883
vn 0.026379 0.999617 -0.008417
vn 0.015984 0.999826 0.009606
vn 0.037868 0.998880 -0.028355
vn 0.000345 0.999282 0.037883
vn -0.015984 0.999826 0.009606
vn -0.026379 0.999617 -0.008417
vn -0.037868 0.998880 -0.028355
vn 0.000000 -1.000000 0.000000
vn 0.000000 -1.000000 0.000000
vn 0.000000 -1.000000 0.000000
vn 0.000000 -1.000000 0.000000
vn -0.037609 -0.999273 -0.006290
vn -0.003344 -0.999814 0.018970
vn 0.000000 -0.999889 -0.014905
vn 0.000000 -1.000000 0.000000
vn 0.000000 -1.000000 0.000000
vn 0.000000 -1.000000 0.000000
vn 0.003344 -0.999814 0.018970
vn 0.037609 -0.999273 -0.006290
vn 0.000000 -1.000000 0.000000
vn 0.000000 -1.000000 0.000000
vn 0.035482 -0.997455 -0.061846
vn 0.037698 -0.999013 0.023506
vn 0.037430 -0.998856 0.029777
vn 0.035109 -0.999155 0.021361
vn -0.847031 0.000000 0.531544
vn -0.847031 0.000000 0.531543
vn -0.847031 0.000000 0.531544
vn -0.847031 0.000000 0.531543
vn 0.000000 0.000000 1.000000
vn 0.000000 0.000000 1.000000
vn 0.000000 0.000000 1.000000
vn 0.000000 0.000000 1.000000
vn 0.000000 0.000000 1.000000
vn 0.000000 0.000000 1.000000
vn 0.847031 0.000000 0.531543
vn 0.847031 0.000000 0.531544
vn 0.847031 0.000000 0.531543
vn 0.847031 0.000000 0.531544
vn 1.000000 0.000000 0.000000
vn 1.000000 0.000000 0.000000
vn 1.000000 0.000000 0.000000
vn 1.000000 0.000000 0.000000
vn -0.356078 0.003102 -0.934451
vn -0.357724 0.008530 -0.933788
vn -0.356546 0.004642 -0.934266
vn -0.358198 0.010102 -0.933591
vn -0.914539 0.007488 -0.404429
vn -0.913493 0.012412 -0.406666
vn -0.912570 0.016651 -0.408580
vn -0.912008 0.019189 -0.409723
vn 0.356078 0.003102 -0.934451
vn 0.356546 0.004642 -0.934266
vn 0.357724 0.008530 -0.933788
vn 0.358199 0.010102 -0.933591
vn -0.489062 0.816473 0.306904
vn -0.514342 0.792261 0.328291
vn -0.791118 0.549837 0.267978
vn -0.800240 0.533918 0.273035
vn 0.000000 0.773602 0.633672
vn 0.000000 0.773602 0.633672
vn 0.000000 0.773602 0.633672
vn 0.000000 0.773602 0.633672
vn 0.489062 0.816473 0.306904
vn 0.791118 0.549837 0.267978
vn 0.514342 0.792261 0.328291
vn 0.800240 0.533918 0.273035
vn 0.839785 0.535292 0.090685
vn 0.870982 0.491316 0.000031
vn -0.283574 0.531306 -0.798311
vn -0.283419 0.529650 -0.799465
vn -0.283541 0.530955 -0.798556
vn -0.283367 0.529097 -0.799849
vn -0.795244 0.528314 -0.297443
vn -0.401299 0.703762 -0.586241
vn -0.798079 0.516706 -0.309975
vn 0.283573 0.531306 -0.798311
vn 0.283541 0.530955 -0.798556
vn 0.283419 0.529650 -0.799465
vn 0.283368 0.529097 -0.799849
vn -0.027366 0.593546 -0.804335
vn -0.062906 0.538352 -0.840369
vn -0.110015 0.459588 -0.881292
vn -0.143227 0.400040 -0.905237
vn -0.745692 0.666286 -0.002577
vn -0.746496 0.665383 -0.002900
vn -0.745803 0.666162 -0.002621
vn -0.746687 0.665169 -0.002976
vn -0.035270 0.595429 0.802633
vn -0.119643 0.459607 0.880027
vn -0.071361 0.539859 0.838725
vn -0.153313 0.399429 0.903854
vn -0.746600 0.665273 0.000001
vn -0.746600 0.665273 0.000001
vn -0.746600 0.665273 0.000001
vn -0.746600 0.665273 0.000001
vn 0.035270 0.595429 0.802633
vn 0.071361 0.539859 0.838725
vn 0.119643 0.459607 0.880027
vn 0.153313 0.399429 0.903854
vn 0.746600 0.665273 0.000001
vn 0.746600 0.665273 0.000001
vn 0.746600 0.665273 0.000001
vn 0.746600 0.665273 0.000001
vn 0.745692 0.666286 -0.002577
vn 0.745803 0.666162 -0.002621
vn 0.746496 0.665383 -0.002899
vn 0.746687 0.665169 -0.002976
vn 0.027366 0.593546 -0.804335
vn 0.110015 0.459588 -0.881292
vn 0.062906 0.538352 -0.840369
vn 0.143227 0.400040 -0.905237
vn -1.000000 0.000000 0.000000
vn -1.000000 -0.000000 0.000000
vn -1.000000 -0.000000 0.000000
vn -1.000000 -0.000000 0.000000
vn 0.000000 -1.000000 0.000000
vn -0.035482 -0.997455 -0.061846
vn -0.037430 -0.998856 0.029777
vn -0.037698 -0.999013 0.023506
vn -0.035109 -0.999155 0.021361
vn 0.914539 0.007488 -0.404429
vn 0.912570 0.016651 -0.408580
vn 0.913493 0.012412 -0.406666
vn 0.912008 0.019189 -0.409723
vn -0.733715 0.636170 -0.238645
vn -0.817102 0.570754 0.081148
vn -0.846459 0.523651 -0.096420
vn -0.870982 0.491316 0.000031
vn -0.839785 0.535292 0.090685
vn 0.847907 0.523811 -0.081701
vn 0.846459 0.523651 -0.096420
vn 0.817102 0.570753 0.081148
vn 0.805513 0.487341 -0.337117
vn 0.798079 0.516706 -0.309975
vn -0.031804 -0.905538 0.423071
vn -0.043047 -0.886012 0.461660
vn 0.052661 -0.724879 0.686860
vn 0.042963 -0.709702 0.703191
vn 0.280873 -0.711356 0.644270
vn 0.280630 -0.711642 0.644059
vn -0.012925 -0.892305 -0.451249
vn -0.149427 -0.731318 -0.665466
vn -0.014453 -0.884709 -0.465920
vn -0.149748 -0.726558 -0.670588
vn -0.566719 -0.721039 -0.398663
vn -0.571064 -0.721177 -0.392161
vn 0.031804 -0.905538 0.423071
vn -0.052662 -0.724879 0.686860
vn 0.043047 -0.886012 0.461660
vn -0.042963 -0.709702 0.703191
vn -0.280873 -0.711355 0.644270
vn -0.280631 -0.711642 0.644059
vn 0.012925 -0.892305 -0.451249
vn 0.014453 -0.884709 -0.465920
vn 0.149427 -0.731318 -0.665466
vn 0.149748 -0.726558 -0.670588
vn 0.566719 -0.721039 -0.398663
vn 0.571064 -0.721177 -0.392161
vn -0.617948 -0.707107 0.343715
vn -0.617947 -0.707109 0.343714
vn -0.617948 -0.707108 0.343715
vn -0.617945 -0.707111 0.343712
vn 0.424844 -0.706787 0.565649
vn 0.424927 -0.706467 0.565988
vn 0.425924 -0.704041 0.568257
vn 0.426007 -0.703842 0.568441
vn -0.677777 -0.707111 -0.201528
vn -0.699352 -0.714703 0.010346
vn -0.677777 -0.707110 -0.201528
vn -0.699352 -0.714703 0.010336
vn -0.424844 -0.706787 0.565649
vn -0.425924 -0.704041 0.568257
vn -0.424927 -0.706467 0.565988
vn -0.426007 -0.703842 0.568440
vn 0.617947 -0.707108 0.343715
vn 0.617947 -0.707108 0.343714
vn 0.617946 -0.707109 0.343714
vn 0.617946 -0.707110 0.343713
vn 0.677777 -0.707110 -0.201528
vn 0.677778 -0.707110 -0.201528
vn 0.699352 -0.714702 0.010346
vn 0.699352 -0.714702 0.010336
vn -0.425991 -0.703845 0.568449
vn -0.425949 -0.704044 0.568233
vn 0.698549 -0.707110 0.109656
vn 0.698549 -0.707110 0.109656
vn 0.425991 -0.703844 0.568450
vn 0.425950 -0.704043 0.568234
vn -0.698551 -0.707109 0.109657
vn -0.698550 -0.707109 0.109657
vn 0.000023 -0.707107 -0.707107
vn 0.000023 -0.707107 -0.707107
vn -0.211990 -0.725111 -0.655191
vn -0.234105 -0.724979 -0.647765
vn -0.420665 -0.707108 -0.568365
vn -0.420665 -0.707108 -0.568366
vn 0.677781 -0.707107 -0.201529
vn 0.677781 -0.707106 -0.201529
vn -0.677780 -0.707107 -0.201529
vn -0.677780 -0.707107 -0.201529
vn 0.420665 -0.707108 -0.568365
vn 0.234105 -0.724979 -0.647765
vn 0.420665 -0.707108 -0.568366
vn 0.211990 -0.725111 -0.655191
vn -0.000023 -0.707106 -0.707107
vn -0.000023 -0.707107 -0.707107
vn -0.146902 0.727245 -0.670473
vn -0.148066 0.726459 -0.671069
vn -0.566720 0.721039 -0.398661
vn -0.571066 0.721177 -0.392158
vn 0.050874 0.713184 0.699128
vn 0.048490 0.709939 0.702592
vn 0.280873 0.711356 0.644270
vn 0.280630 0.711642 0.644059
vn -0.050874 0.713184 0.699128
vn -0.048490 0.709939 0.702592
vn -0.280873 0.711355 0.644270
vn -0.280630 0.711642 0.644059
vn 0.033670 0.744012 -0.667317
vn 0.146903 0.727245 -0.670473
vn 0.033871 0.742329 -0.669179
vn 0.148066 0.726459 -0.671069
vn 0.566720 0.721039 -0.398661
vn 0.571066 0.721176 -0.392158
vn -0.699352 0.714702 0.010336
vn -0.698549 0.707110 0.109656
vn -0.699352 0.714702 0.010347
vn -0.698549 0.707110 0.109656
vn -0.677777 0.707110 -0.201528
vn -0.677777 0.707111 -0.201527
vn -0.617945 0.707111 0.343712
vn -0.617946 0.707109 0.343714
vn -0.617947 0.707108 0.343715
vn -0.617948 0.707107 0.343715
vn 0.424844 0.706787 0.565649
vn 0.425924 0.704041 0.568257
vn 0.424926 0.706467 0.565988
vn 0.426007 0.703842 0.568441
vn 0.425991 0.703844 0.568450
vn 0.425950 0.704043 0.568234
vn -0.425950 0.704043 0.568234
vn -0.425991 0.703844 0.568450
vn -0.426007 0.703842 0.568441
vn -0.425924 0.704041 0.568257
vn 0.677781 0.707107 -0.201529
vn 0.677780 0.707107 -0.201529
vn -0.420665 0.707108 -0.568366
vn -0.234105 0.724980 -0.647765
vn -0.420665 0.707108 -0.568366
vn -0.211990 0.725111 -0.655190
vn -0.424926 0.706467 0.565988
vn -0.424844 0.706787 0.565649
vn 0.617948 0.707107 0.343715
vn 0.617946 0.707109 0.343714
vn 0.617947 0.707108 0.343715
vn 0.617945 0.707111 0.343712
vn 0.677777 0.707111 -0.201527
vn 0.699352 0.714703 0.010346
vn 0.677777 0.707110 -0.201528
vn 0.699352 0.714703 0.010336
vn 0.698550 0.707109 0.109657
vn 0.698550 0.707109 0.109657
vn -0.677780 0.707107 -0.201529
vn -0.677780 0.707107 -0.201529
vn 0.420665 0.707108 -0.568366
vn 0.420665 0.707108 -0.568366
vn 0.234105 0.724980 -0.647765
vn 0.211990 0.725111 -0.655190
vn 0.000023 0.707107 -0.707107
vn 0.000023 0.707107 -0.707107
vn -0.000023 0.707107 -0.707107
vn -0.000023 0.707107 -0.707107
vn -0.059672 0.998218 -0.000261
vn -0.025200 0.999616 0.011508
vn -0.025636 0.999655 0.005669
vn -0.015224 0.999844 0.008956
vn 0.015224 0.999844 0.008956
vn 0.025200 0.999616 0.011508
vn 0.025636 0.999655 0.005669
vn 0.059672 0.998218 -0.000261
vn 0.000000 1.000000 -0.000000
vn 0.000000 1.000000 0.000000
vn 0.000000 1.000000 0.000000
vn 0.000000 1.000000 0.000000
vn 0.000000 1.000000 -0.000000
vn 0.000000 1.000000 -0.000000
vn 0.000000 1.000000 -0.000000
vn 0.000000 1.000000 -0.000000
vn 0.000000 1.000000 -0.000000
vn 0.000000 1.000000 0.000000
vn 0.000000 1.000000 0.000000
vn 0.000000 1.000000 0.000000
vn 0.000000 1.000000 -0.000000
vn 0.000000 1.000000 0.000000
vn -0.000000 1.000000 -0.000000
vn 0.000000 1.000000 -0.000000
vn 0.000000 1.000000 -0.000000
vn 0.000000 1.000000 -0.000000
vn 0.000000 1.000000 -0.000000
vn 0.000000 1.000000 -0.000000
vn 0.000000 -1.000000 0.000000
vn 0.000000 -1.000000 0.000000
vn 0.000000 -1.000000 0.000000
vn 0.000000 -1.000000 0.000000
vn 0.000000 -1.000000 0.000000
vn 0.000000 -1.000000 0.000000
vn 0.000000 -1.000000 0.000000
vn 0.000000 -1.000000 0.000000
vn 0.000000 -1.000000 0.000000
vn 0.000000 -1.000000 0.000000
vn 0.000000 -1.000000 0.000000
vn 0.000000 -1.000000 0.000000
vn 0.000000 -1.000000 0.000000
vn 0.000000 -1.000000 0.000000
vn 0.000000 -1.000000 0.000000
vn 0.000000 -1.000000 0.000000
vn 0.000000 -1.000000 0.000000
vn 0.000000 -1.000000 0.000000
vn 0.000000 -1.000000 0.000000
vn 0.000000 -1.000000 0.000000
vn 0.000000 -1.000000 0.000000
vn 0.000000 -1.000000 0.000000
vn 0.000000 -1.000000 0.000000
vn 0.000000 -1.000000 0.000000
vn -0.028376 0.036420 -0.998934
vn -0.023918 0.005557 -0.999699
vn -0.028111 0.034577 -0.999007
vn -0.023112 0.000000 -0.999733
vn -0.086145 0.027845 0.995894
vn -0.084380 0.023618 0.996154
vn 0.091354 0.005945 0.995801
vn 0.106515 0.000000 0.994311
vn 0.086145 0.027845 0.995894
vn -0.091354 0.005945 0.995801
vn 0.084380 0.023618 0.996154
vn -0.106515 0.000000 0.994311
vn 0.028376 0.036420 -0.998934
vn 0.028111 0.034577 -0.999007
vn 0.023917 0.005557 -0.999699
vn 0.023112 0.000000 -0.999733
vn -0.999843 0.000000 0.017719
vn -0.958526 0.000000 -0.285004
vn -0.999843 0.000000 0.017719
vn -0.958526 0.000000 -0.285004
vn -0.873911 0.000000 0.486087
vn -0.873910 0.000000 0.486087
vn -0.873910 0.000000 0.486087
vn -0.873910 0.000000 0.486087
vn 0.599916 0.000000 0.800063
vn 0.599915 0.000000 0.800064
vn 0.599916 0.000000 0.800063
vn 0.599915 0.000000 0.800064
vn -0.401821 0.000000 0.915718
vn -0.599916 0.000000 0.800063
vn -0.401698 0.000000 0.915772
vn -0.599916 0.000000 0.800063
vn 0.958526 0.000000 -0.285004
vn 0.958526 0.000000 -0.285004
vn 0.958526 0.000000 -0.285004
vn 0.958526 0.000000 -0.285004
vn -0.599915 0.000000 0.800064
vn -0.599916 0.000000 0.800063
vn -0.599915 0.000000 0.800064
vn -0.599916 0.000000 0.800063
vn 0.873910 0.000000 0.486087
vn 0.873910 0.000000 0.486087
vn 0.873910 0.000000 0.486087
vn 0.873911 0.000000 0.486087
vn 0.958526 0.000000 -0.285004
vn 0.999843 0.000000 0.017719
vn 0.958526 0.000000 -0.285004
vn 0.999843 0.000000 0.017719
vn -0.958526 0.000000 -0.285004
vn -0.958526 0.000000 -0.285004
vn -0.958526 0.000000 -0.285004
vn -0.958526 0.000000 -0.285004
vn 0.599916 0.000000 0.800063
vn 0.401698 0.000000 0.915772
vn 0.599916 0.000000 0.800063
vn 0.401821 0.000000 0.915718
vn 0.987902 0.000000 0.155078
vn 0.987902 0.000000 0.155078
vn 0.000032 0.000000 -1.000000
vn 0.000032 0.000000 -1.000000
vn 0.000032 0.000000 -1.000000
vn 0.000032 0.000000 -1.000000
vn -0.594911 0.000000 -0.803792
vn -0.594910 0.000000 -0.803792
vn -0.594910 0.000000 -0.803792
vn -0.594910 0.000000 -0.803792
vn 0.594910 0.000000 -0.803792
vn 0.594910 0.000000 -0.803792
vn 0.594910 0.000000 -0.803792
vn 0.594910 0.000000 -0.803792
vn -0.000032 0.000000 -1.000000
vn -0.000032 0.000000 -1.000000
vn -0.000032 0.000000 -1.000000
vn -0.000032 0.000000 -1.000000
vn -0.987902 0.000000 0.155078
vn -0.987902 0.000000 0.155078
vn -0.655895 0.000000 -0.754853
vn -0.655895 0.000000 -0.754853
vn -0.655895 0.000000 -0.754853
vn -0.655895 0.000000 -0.754853
vn 0.655895 0.000000 -0.754852
vn 0.655894 0.000000 -0.754853
vn 0.655895 0.000000 -0.754853
vn 0.655894 0.000000 -0.754853
vn 0.016551 -0.999764 -0.014047
vn 0.000000 -1.000000 0.000000
vn -0.016551 -0.999764 -0.014047
vn 0.040772 -0.999084 0.013028
vn 0.017972 -0.892899 -0.449899
vn -0.017972 -0.892899 -0.449899
vn -0.040772 -0.999084 0.013028
vn 0.795244 0.528314 -0.297443
s 1
g pPlane1
usemtl initialShadingGroup
f 32/32/1 33/8/2 35/31/3
f 35/31/3 33/8/2 34/30/4
s 2
f 23/24/5 24/7/6 25/23/7
s 1
f 37/34/8 33/8/2 36/33/9
f 36/33/9 33/8/2 32/32/1
s 2
f 26/25/10 24/7/6 23/24/5
s 1
f 37/34/8 38/35/11 33/8/2
f 33/8/2 38/35/11 39/36/12
f 34/30/4 33/8/2 40/37/13
f 40/37/13 33/8/2 39/36/12
s 4
f 22/28/14 21/9/15 30/27/16
f 30/27/16 21/9/15 29/26/17
s 5
f 28/67/18 31/28/19 21/3/20
f 21/3/20 31/28/19 29/29/21
s 6
f 5/11/22 3/14/23 6/12/24
f 3/14/23 1/13/25 6/12/24
s 7
f 41/38/26 42/41/27 153/184/28
f 153/184/28 42/41/27 7/43/29
s 6
f 5/11/22 6/12/24 4/15/30
f 2/2/31 4/15/30 6/12/24
s 7
f 7/43/29 50/183/32 153/184/28
f 153/184/28 50/183/32 49/63/33
f 8/40/34 54/45/35 7/43/29
f 7/43/29 54/45/35 50/183/32
s 8
f 53/48/36 154/185/37 11/47/38
f 11/47/38 154/185/37 10/10/39
s 9
f 1/13/40 3/1/41 13/16/42
f 13/16/42 3/1/41 14/17/43
s 10
f 3/1/44 5/5/45 14/17/46
f 14/17/46 5/5/45 12/18/47
f 5/5/45 4/4/48 12/18/47
f 12/18/47 4/4/48 16/19/49
s 11
f 4/4/50 2/2/51 16/19/52
f 16/19/52 2/2/51 15/20/53
s 12
f 2/2/54 49/63/55 15/20/56
f 15/20/56 49/63/55 106/62/57
s 13
f 10/39/58 9/53/59 17/21/60
f 17/21/60 9/53/59 18/50/61
s 14
f 45/54/62 98/51/63 9/53/64
f 9/53/64 98/51/63 18/50/65
s 15
f 10/10/66 17/22/67 11/47/68
f 11/47/68 17/22/67 19/68/69
s 16
f 14/17/70 23/24/71 13/16/72
f 13/16/72 23/24/71 25/23/73
s 17
f 14/17/74 12/18/75 23/24/76
f 12/18/75 16/19/77 23/24/76
s 18
f 16/19/78 15/20/79 23/24/80
f 23/24/80 15/20/79 26/25/81
f 15/20/79 106/62/82 26/25/81
f 26/25/81 106/62/82 27/66/83
s 19
f 17/21/84 18/50/85 29/26/86
f 29/26/86 18/50/85 30/27/87
s 16
f 18/50/88 98/51/89 30/27/90
s 21
f 17/22/91 29/29/92 19/68/93
f 19/68/93 29/29/92 31/28/94
s 22
f 22/57/95 35/31/96 21/28/97
f 21/28/97 35/31/96 34/30/98
s 23
f 22/57/99 20/59/100 35/31/101
f 35/31/101 20/59/100 32/32/102
s 24
f 25/24/103 24/6/104 36/33/105
f 36/33/105 24/6/104 37/34/106
s 25
f 25/24/107 36/33/108 20/59/109
f 20/59/109 36/33/108 32/32/110
s 26
f 26/25/111 38/35/112 24/6/113
f 24/6/113 38/35/112 37/34/114
s 27
f 26/25/115 27/66/116 38/35/117
f 38/35/117 27/66/116 39/36/118
s 28
f 28/67/119 40/37/120 27/66/121
f 27/66/121 40/37/120 39/36/122
s 29
f 28/67/123 21/28/124 40/37/125
f 40/37/125 21/28/124 34/30/126
s 30
f 1/60/127 13/58/128 41/38/129
f 41/38/129 13/58/128 102/61/130
s 7
f 42/41/27 46/42/131 7/43/29
f 7/43/29 46/42/131 8/40/34
s 31
f 45/54/132 9/53/133 154/186/134
f 154/186/134 9/53/133 10/39/135
s 32
f 53/48/136 11/47/137 110/69/138
f 110/69/138 11/47/137 19/68/139
s 16
f 97/55/140 101/56/141 22/57/142
f 22/57/142 101/56/141 20/59/143
f 101/56/141 102/61/144 20/59/143
s 18
f 109/65/145 28/67/146 105/64/147
f 105/64/147 28/67/146 27/66/83
f 110/69/148 31/28/149 109/65/145
f 109/65/145 31/28/149 28/67/146
s 36
f 42/111/150 41/70/151 43/112/152
f 43/112/152 41/70/151 44/174/153
f 44/174/153 90/156/154 43/112/152
f 43/112/152 90/156/154 89/127/155
s 37
f 46/72/156 47/128/157 45/71/158
f 45/71/158 47/128/157 48/132/159
f 48/132/159 47/128/157 92/176/160
f 92/176/160 47/128/157 91/119/161
s 38
f 50/73/162 51/129/163 49/135/164
f 49/135/164 51/129/163 52/136/165
f 52/136/165 51/129/163 94/178/166
f 94/178/166 51/129/163 93/116/167
s 39
f 54/113/168 53/74/169 55/114/170
f 55/114/170 53/74/169 56/180/171
f 56/180/171 96/146/172 55/114/170
f 55/114/170 96/146/172 95/130/173
s 40
f 58/140/174 60/138/175 57/75/176
f 57/75/176 60/138/175 59/115/177
s 36
f 58/140/178 57/75/179 70/142/180
f 70/142/180 57/75/179 69/122/181
s 42
f 60/138/182 72/172/183 59/115/184
f 59/115/184 72/172/183 71/123/185
s 38
f 62/148/186 66/158/187 61/76/188
f 61/76/188 66/158/187 65/117/189
s 44
f 62/148/190 61/76/191 64/150/192
f 64/150/192 61/76/191 63/77/193
s 45
f 64/150/194 63/77/195 68/152/196
f 68/152/196 63/77/195 67/124/197
s 38
f 66/158/187 74/144/198 65/117/189
f 65/117/189 74/144/198 73/120/199
s 45
f 67/124/197 77/78/200 68/152/196
f 68/152/196 77/78/200 78/162/201
s 36
f 70/142/180 69/122/181 76/160/202
f 76/160/202 69/122/181 75/118/203
s 42
f 71/123/185 72/172/183 87/125/204
f 87/125/204 72/172/183 88/170/205
s 38
f 74/144/198 94/178/166 73/120/199
f 73/120/199 94/178/166 93/116/167
s 36
f 76/160/202 75/118/203 90/156/154
f 90/156/154 75/118/203 89/127/155
s 46
f 78/162/206 77/78/207 82/164/208
f 82/164/208 77/78/207 81/79/209
f 79/121/210 80/166/211 81/79/209
f 81/79/209 80/166/211 82/164/208
s 39
f 79/121/212 95/130/173 80/166/213
f 80/166/213 95/130/173 96/146/172
s 37
f 83/126/214 84/154/215 91/119/161
f 91/119/161 84/154/215 92/176/160
s 47
f 83/126/216 85/80/217 84/154/218
f 84/154/218 85/80/217 86/168/219
f 85/80/217 87/125/220 86/168/219
f 86/168/219 87/125/220 88/170/221
s 16
f 97/87/140 98/81/89 99/88/222
f 99/88/222 98/81/89 100/177/223
f 100/177/223 137/155/224 99/88/222
f 99/88/222 137/155/224 138/108/225
f 101/82/141 104/107/226 102/133/144
f 102/133/144 104/107/226 103/134/227
f 103/134/227 104/107/226 142/175/228
f 142/175/228 104/107/226 141/98/229
s 18
f 105/89/147 106/83/82 107/90/230
f 107/90/230 106/83/82 108/179/231
f 108/179/231 121/145/232 107/90/230
f 107/90/230 121/145/232 122/109/233
s 48
f 109/84/234 112/110/235 110/69/236
f 110/69/236 112/110/235 111/137/237
f 111/137/237 112/110/235 126/181/238
f 126/181/238 112/110/235 125/94/239
s 49
f 114/105/240 151/86/241 113/139/242
f 113/139/242 151/86/241 152/173/243
f 114/105/240 113/139/242 115/92/244
f 115/92/244 113/139/242 116/141/245
s 50
f 115/92/246 116/141/247 117/93/248
f 117/93/248 116/141/247 118/143/249
s 16
f 118/143/250 120/161/251 117/93/252
f 117/93/252 120/161/251 119/91/253
f 120/161/251 143/157/254 119/91/253
f 119/91/253 143/157/254 144/101/255
s 18
f 122/109/233 121/145/232 123/95/256
f 123/95/256 121/145/232 124/159/257
f 123/95/256 124/159/257 130/99/258
f 130/99/258 124/159/257 129/149/259
s 48
f 126/181/238 125/94/239 127/147/260
f 127/147/260 125/94/239 128/103/261
s 52
f 128/103/262 147/85/263 127/147/264
f 127/147/264 147/85/263 148/167/265
s 18
f 130/99/258 129/149/259 131/96/266
f 131/96/266 129/149/259 132/151/267
s 53
f 132/151/268 134/153/269 131/96/270
f 131/96/270 134/153/269 133/97/271
s 54
f 134/153/272 136/163/273 133/97/274
f 133/97/274 136/163/273 135/100/275
f 135/100/275 136/163/273 145/104/276
f 145/104/276 136/163/273 146/165/277
s 16
f 137/155/224 140/169/278 138/108/225
f 138/108/225 140/169/278 139/102/279
s 55
f 139/102/280 140/169/281 149/106/282
f 149/106/282 140/169/281 150/171/283
s 16
f 141/98/229 144/101/255 142/175/228
f 142/175/228 144/101/255 143/157/254
s 52
f 146/165/284 148/167/265 145/104/285
f 145/104/285 148/167/265 147/85/263
s 55
f 149/106/282 150/171/283 151/86/286
f 151/86/286 150/171/283 152/173/287
s 56
f 101/82/288 97/87/289 104/107/290
f 104/107/290 97/87/289 99/88/291
s 57
f 112/110/292 109/84/293 107/90/294
f 107/90/294 109/84/293 105/89/295
s 56
f 114/105/296 115/92/297 119/91/298
f 119/91/298 115/92/297 117/93/299
s 57
f 125/94/300 122/109/301 128/103/302
f 128/103/302 122/109/301 123/95/303
f 135/100/304 130/99/305 133/97/306
f 133/97/306 130/99/305 131/96/307
s 56
f 138/108/308 139/102/309 141/98/310
f 141/98/310 139/102/309 144/101/311
s 57
f 130/99/305 135/100/304 123/95/303
f 123/95/303 135/100/304 128/103/302
s 56
f 119/91/298 144/101/311 114/105/296
f 114/105/296 144/101/311 139/102/309
s 57
f 145/104/312 147/85/313 135/100/304
f 128/103/302 135/100/304 147/85/313
s 56
f 151/86/314 114/105/296 149/106/315
f 114/105/296 139/102/309 149/106/315
f 104/107/290 99/88/291 141/98/310
f 141/98/310 99/88/291 138/108/308
s 57
f 107/90/294 122/109/301 112/110/292
f 112/110/292 122/109/301 125/94/300
s 7
f 42/111/27 43/112/316 46/72/131
f 46/72/131 43/112/316 47/128/317
f 55/114/318 51/129/319 54/113/35
f 54/113/35 51/129/319 50/73/32
f 57/75/320 59/115/321 69/122/322
f 69/122/322 59/115/321 71/123/323
f 95/130/324 79/121/325 93/116/326
f 93/116/326 79/121/325 73/120/327
f 67/124/328 63/77/329 65/117/330
f 65/117/330 63/77/329 61/76/331
f 75/118/332 83/126/333 89/127/334
f 89/127/334 83/126/333 91/119/335
f 79/121/325 67/124/328 73/120/327
f 73/120/327 67/124/328 65/117/330
f 69/122/322 71/123/323 75/118/332
f 75/118/332 71/123/323 83/126/333
f 77/78/336 67/124/328 81/79/337
f 79/121/325 81/79/337 67/124/328
f 87/125/338 85/80/339 71/123/323
f 71/123/323 85/80/339 83/126/333
f 91/119/335 47/128/317 89/127/334
f 89/127/334 47/128/317 43/112/316
f 51/129/319 55/114/318 93/116/326
f 93/116/326 55/114/318 95/130/324
s 67
f 45/131/340 48/132/341 98/81/342
f 98/81/342 48/132/341 100/177/343
s 68
f 41/70/344 102/133/345 44/174/346
f 44/174/346 102/133/345 103/134/347
s 69
f 49/135/348 52/136/349 106/83/350
f 106/83/350 52/136/349 108/179/351
s 70
f 53/48/352 110/69/353 56/180/354
f 56/180/354 110/69/353 111/137/355
s 71
f 72/172/356 60/138/357 113/139/358
f 113/139/358 60/138/357 116/141/359
s 72
f 60/138/360 58/140/361 116/141/362
f 116/141/362 58/140/361 118/143/363
s 68
f 58/140/364 70/142/365 118/143/366
f 118/143/366 70/142/365 120/161/367
s 69
f 94/178/368 74/144/369 121/145/370
f 121/145/370 74/144/369 124/159/371
s 75
f 80/166/372 96/146/373 127/147/374
f 127/147/374 96/146/373 126/181/375
s 69
f 66/158/376 62/148/377 129/149/378
f 129/149/378 62/148/377 132/151/379
s 77
f 62/148/380 64/150/381 132/151/382
f 132/151/382 64/150/381 134/153/383
s 78
f 64/150/384 68/152/385 134/153/386
f 134/153/386 68/152/385 136/163/387
s 79
f 92/176/388 84/154/389 137/155/390
f 137/155/390 84/154/389 140/169/391
s 68
f 76/160/392 90/156/393 143/157/394
f 143/157/394 90/156/393 142/175/395
s 69
f 74/144/369 66/158/376 124/159/371
f 124/159/371 66/158/376 129/149/378
s 68
f 70/142/365 76/160/392 120/161/367
f 120/161/367 76/160/392 143/157/394
s 78
f 68/152/385 78/162/396 136/163/387
f 136/163/387 78/162/396 146/165/397
s 81
f 78/162/398 82/164/399 146/165/400
f 146/165/400 82/164/399 148/167/401
s 82
f 82/164/402 80/166/403 148/167/404
f 148/167/404 80/166/403 127/147/405
s 83
f 84/154/406 86/168/407 140/169/408
f 140/169/408 86/168/407 150/171/409
s 84
f 86/168/410 88/170/411 150/171/412
f 150/171/412 88/170/411 152/173/413
s 71
f 88/170/414 72/172/356 152/173/415
f 152/173/415 72/172/356 113/139/358
s 68
f 90/156/393 44/174/346 142/175/395
f 142/175/395 44/174/346 103/134/347
s 85
f 48/132/416 92/176/417 100/177/418
f 100/177/418 92/176/417 137/155/419
s 69
f 52/136/349 94/178/368 108/179/351
f 108/179/351 94/178/368 121/145/370
s 86
f 96/146/420 56/180/421 126/181/422
f 126/181/422 56/180/421 111/137/423
s 7
f 49/63/33 2/2/424 153/184/28
f 153/184/28 2/2/424 6/44/425
f 41/38/26 153/184/28 1/60/426
f 1/60/426 153/184/28 6/44/425
s 8
f 154/185/37 53/48/36 8/46/427
f 8/46/427 53/48/36 54/49/428
s 31
f 46/182/429 45/54/132 8/40/430
f 8/40/430 45/54/132 154/186/134
s 16
f 20/59/143 102/61/144 25/24/73
f 25/24/73 102/61/144 13/58/72
s 18
f 27/66/83 106/62/82 105/64/147
s 16
f 98/51/89 97/52/140 30/27/90
f 30/27/90 97/52/140 22/28/142
s 18
f 31/28/149 110/69/148 19/68/431
